<svg xmlns="http://www.w3.org/2000/svg" width="48" height="48" viewBox="0 0 48 48" fill="none">
  <g clip-path="url(#clip0_1319_85)">
    <path fill-rule="evenodd" clip-rule="evenodd" d="M3.5293 0.470703L7.27993 42.9559L23.5295 47.53L39.7791 42.9559L43.5297 0.470703H3.5293ZM35.4755 14.2403L23.5154 19.5886L23.4848 19.6003H35.0543L33.7296 35.5111L23.5319 38.6241L23.5154 38.617V38.6241L13.2612 35.4523L12.6023 27.4404H17.6895L18.0189 31.591L23.4683 33.0287L23.5154 33.0146V33.0216L29.1555 31.3604L29.5413 24.6733L23.5154 24.6545L12.2682 24.6168L11.8847 19.6003L23.5154 14.5344L24.193 14.2403H11.4447L10.8353 9.1108H35.972L35.4755 14.2403Z" fill="#343434"/>
  </g>
  <defs>
    <clipPath id="clip0_1319_85">
      <rect width="47.0593" height="47.0593" fill="white" transform="translate(0 0.470703)"/>
    </clipPath>
  </defs>
</svg>