<svg xmlns="http://www.w3.org/2000/svg" width="49" height="48" viewBox="0 0 49 48" fill="none">
  <g clip-path="url(#clip0_1319_87)">
    <mask id="mask0_1319_87" style="mask-type:luminance" maskUnits="userSpaceOnUse" x="0" y="0" width="49" height="48">
      <path d="M0.974609 0.46875H48.0339V47.5281H0.974609V0.46875Z" fill="white"/>
    </mask>
    <g mask="url(#mask0_1319_87)">
      <path fill-rule="evenodd" clip-rule="evenodd" d="M0.974609 0.46875H48.0339V47.5281H0.974609V0.46875ZM36.9495 39.9202C34.7671 39.9202 33.5338 38.7829 32.5867 37.2339L28.9926 39.3221C30.2906 41.8868 32.9436 43.8437 37.0515 43.8437C41.2515 43.8437 44.379 41.6633 44.379 37.6809C44.379 33.9887 42.2574 32.3475 38.5005 30.7338L37.3946 30.2612C35.4965 29.4377 34.675 28.9024 34.675 27.5749C34.675 26.5024 35.4985 25.6808 36.7926 25.6808C38.0613 25.6808 38.8789 26.2161 39.6378 27.5749L43.0809 25.3651C41.6241 22.8023 39.6044 21.8239 36.7926 21.8239C32.8436 21.8239 30.3161 24.3494 30.3161 27.6671C30.3161 31.2652 32.4338 32.9691 35.626 34.3279L36.7319 34.8025C38.7495 35.6848 39.9515 36.2221 39.9515 37.7378C39.9515 39.0045 38.7809 39.9202 36.9495 39.9202ZM19.8121 39.8907C18.2924 39.8907 17.6591 38.8515 16.965 37.6162L13.3649 39.7966C14.4081 42.0045 16.4591 43.8359 19.9983 43.8359C23.918 43.8359 26.6023 41.7515 26.6023 37.1731V22.0749H22.1807V37.1142C22.1807 39.3241 21.2631 39.8907 19.8101 39.8907H19.8121Z" fill="#343434"/>
    </g>
  </g>
  <defs>
    <clipPath id="clip0_1319_87">
      <rect width="47.0593" height="47.0593" fill="white" transform="translate(0.976562 0.470703)"/>
    </clipPath>
  </defs>
</svg>