<svg xmlns="http://www.w3.org/2000/svg" width="48" height="48" viewBox="0 0 48 48" fill="none">
  <g clip-path="url(#clip0_1319_109)">
    <path fill-rule="evenodd" clip-rule="evenodd" d="M0.941407 23.9995C0.941558 19.9393 1.99233 15.9483 3.99156 12.4144C5.99079 8.88054 8.87043 5.92414 12.3505 3.83266C15.8305 1.74118 19.7926 0.585804 23.8514 0.478867C27.9101 0.371931 31.9275 1.31708 35.5129 3.2224C39.0982 5.12773 42.1295 7.92839 44.3121 11.3521C46.4946 14.7758 47.7541 18.7059 47.968 22.7605C48.182 26.815 47.3431 30.8559 45.533 34.4903C43.7229 38.1247 41.0032 41.2288 37.6383 43.5009L16.3361 13.6778C16.1431 13.4073 15.8691 13.2051 15.5538 13.1004C15.2385 12.9956 14.898 12.9937 14.5815 13.0949C14.265 13.1961 13.9888 13.3952 13.7927 13.6634C13.5967 13.9317 13.4908 14.2553 13.4906 14.5876V38.1173H16.6278V19.4818L34.9182 45.0884C31.3305 46.8662 27.3483 47.699 23.3488 47.508C19.3492 47.317 15.4646 46.1086 12.0625 43.997C8.66043 41.8853 5.85351 38.9405 3.90742 35.4411C1.96133 31.9417 0.940446 28.0036 0.941407 23.9995ZM32.3143 31.8427V13.019H35.4516V31.8427H32.3143Z" fill="#343434"/>
  </g>
  <defs>
    <clipPath id="clip0_1319_109">
      <rect width="47.0593" height="47.0593" fill="white" transform="translate(0.941406 0.470703)"/>
    </clipPath>
  </defs>
</svg>