<svg xmlns="http://www.w3.org/2000/svg" width="49" height="48" viewBox="0 0 49 48" fill="none">
  <g clip-path="url(#clip0_1319_101)">
    <mask id="mask0_1319_101" style="mask-type:luminance" maskUnits="userSpaceOnUse" x="0" y="0" width="49" height="48">
      <path d="M0.951172 0.46875H48.0105V47.5281H0.951172V0.46875Z" fill="white"/>
    </mask>
    <g mask="url(#mask0_1319_101)">
      <path d="M48.0105 23.3907C48.0105 20.273 44.1065 17.3181 38.1202 15.4867C39.5026 9.38662 38.8888 4.53166 36.1829 2.97674C35.5273 2.60953 34.7852 2.42468 34.0339 2.44144V4.57872C34.4751 4.57872 34.83 4.66696 35.128 4.82971C36.4319 5.57873 36.9986 8.42582 36.5574 12.0906C36.4516 12.9925 36.279 13.9416 36.0672 14.9102C34.0626 14.4271 32.028 14.078 29.977 13.8651C28.7551 12.1794 27.4221 10.5771 25.9867 9.06897C29.1142 6.16305 32.0495 4.57088 34.0456 4.57088V2.43164C31.4064 2.43164 27.9534 4.31205 24.4612 7.57287C20.971 4.33362 17.5161 2.47086 14.8788 2.47086V4.60813C16.8651 4.60813 19.8102 6.19247 22.9377 9.07877C21.5945 10.4906 20.2514 12.0906 18.9749 13.8651C16.9196 14.0756 14.8814 14.4281 12.8748 14.92C12.6628 14.0019 12.4959 13.074 12.3748 12.1396C11.9238 8.47288 12.4807 5.62579 13.7768 4.86892C14.0631 4.69637 14.4376 4.61794 14.8788 4.61794V2.48066C14.0748 2.48066 13.3435 2.65321 12.7121 3.01596C10.016 4.57088 9.41205 9.41407 10.8023 15.4965C4.83553 17.3396 0.951172 20.2828 0.951172 23.3907C0.951172 26.5084 4.85514 29.4633 10.8415 31.2927C9.45911 37.3948 10.0728 42.2497 12.7788 43.8027C13.4023 44.1674 14.1317 44.3399 14.9356 44.3399C17.5749 44.3399 21.0279 42.4595 24.5201 39.1987C28.0103 42.4399 31.4633 44.3007 34.1025 44.3007C34.8596 44.3167 35.6073 44.1313 36.2692 43.7635C38.9653 42.2105 39.5692 37.3673 38.179 31.2849C44.1261 29.4535 48.0105 26.4986 48.0105 23.3907ZM35.5202 16.9926C35.1476 18.2747 34.7157 19.5388 34.226 20.7809C33.4244 19.2215 32.5442 17.7039 31.5888 16.2338C32.9515 16.4357 34.2653 16.6847 35.5221 16.9926H35.5202ZM31.128 27.2084C30.4098 28.4622 29.6385 29.6849 28.8162 30.8731C25.9382 31.1268 23.0436 31.1301 20.1651 30.8829C18.514 28.5244 17.07 26.0275 15.8494 23.4201C17.0682 20.8066 18.506 18.3008 20.1475 15.9298C23.0247 15.6756 25.9186 15.6717 28.7966 15.9181C29.5927 17.0592 30.3711 18.2789 31.1182 19.5652C31.8476 20.8201 32.5103 22.0946 33.1143 23.3809C32.5036 24.6828 31.841 25.9596 31.128 27.2084ZM34.226 25.9613C34.7437 27.2456 35.1868 28.5319 35.5496 29.779C34.2947 30.0868 32.9692 30.3457 31.5986 30.5457C32.55 29.0622 33.4269 27.5321 34.226 25.9613ZM24.5004 36.1967C23.6083 35.2751 22.7161 34.2496 21.8337 33.1261C22.6965 33.1653 23.5789 33.1947 24.471 33.1947C25.373 33.1947 26.2652 33.1751 27.1377 33.1261C26.275 34.2496 25.3828 35.2751 24.5004 36.1967ZM17.3631 30.5457C16.041 30.3541 14.7285 30.1015 13.4297 29.7888C13.7846 28.5515 14.2258 27.275 14.7239 26.0005C15.118 26.7652 15.5317 27.5339 15.9827 28.3025C16.4337 29.0692 16.8925 29.8182 17.3631 30.5457ZM24.4514 10.5847C25.3436 11.5062 26.2358 12.5317 27.1181 13.6553C26.2554 13.6161 25.373 13.5867 24.4808 13.5867C23.5789 13.5867 22.6867 13.6063 21.8141 13.6553C22.6769 12.5317 23.5691 11.5062 24.4514 10.5847ZM17.3533 16.2357C16.4021 17.716 15.5251 19.2427 14.7258 20.8103C14.2223 19.5602 13.7806 18.2861 13.4023 16.9926C14.6572 16.6945 15.9827 16.4357 17.3533 16.2357ZM8.67282 28.2437C5.27671 26.7966 3.08061 24.8966 3.08061 23.3907C3.08061 21.8848 5.27671 19.975 8.67282 18.5377C9.49636 18.1828 10.3983 17.8651 11.3297 17.5691C11.8768 19.4475 12.5964 21.4044 13.4866 23.4103C12.6461 25.297 11.9353 27.2387 11.3591 29.2221C10.4482 28.9401 9.55173 28.6135 8.67282 28.2437ZM13.8337 41.9497C12.5297 41.2046 11.9631 38.3536 12.4042 34.6908C12.5101 33.7888 12.6827 32.8379 12.8944 31.8692C14.7729 32.33 16.8259 32.6849 18.9847 32.9163C20.2066 34.602 21.5397 36.2042 22.9749 37.7124C19.8475 40.6183 16.9121 42.2105 14.916 42.2105C14.5394 42.2146 14.1677 42.1257 13.8337 41.9517V41.9497ZM36.5868 34.6418C37.0378 38.3065 36.481 41.1556 35.1849 41.9125C34.8986 42.085 34.5241 42.1615 34.0829 42.1615C32.0966 42.1615 29.1515 40.5791 26.024 37.6908C27.4533 36.189 28.7773 34.5904 29.9868 32.9065C32.042 32.6959 34.0803 32.3435 36.0868 31.8516C36.3084 32.8202 36.479 33.7496 36.5868 34.6418ZM40.279 28.2437C39.4555 28.5986 38.5535 28.9162 37.6222 29.2123C37.0358 27.2188 36.3152 25.2673 35.4653 23.3711C36.3476 21.3769 37.0555 19.4299 37.5927 17.5593C38.5065 17.8422 39.4063 18.1688 40.2888 18.5377C43.685 19.9848 45.8811 21.8848 45.8811 23.3907C45.8713 24.8966 43.6752 26.8064 40.279 28.2437Z" fill="#343434"/>
      <path d="M24.4723 27.7746C25.6351 27.7746 26.7502 27.3127 27.5725 26.4904C28.3947 25.6682 28.8566 24.553 28.8566 23.3902C28.8566 22.2274 28.3947 21.1122 27.5725 20.29C26.7502 19.4678 25.6351 19.0059 24.4723 19.0059C23.3094 19.0059 22.1943 19.4678 21.372 20.29C20.5498 21.1122 20.0879 22.2274 20.0879 23.3902C20.0879 24.553 20.5498 25.6682 21.372 26.4904C22.1943 27.3127 23.3094 27.7746 24.4723 27.7746Z" fill="#343434"/>
    </g>
  </g>
  <defs>
    <clipPath id="clip0_1319_101">
      <rect width="47.0593" height="47.0593" fill="white" transform="translate(0.953125 0.470703)"/>
    </clipPath>
  </defs>
</svg>