<svg xmlns="http://www.w3.org/2000/svg" width="49" height="48" viewBox="0 0 49 48" fill="none">
  <g clip-path="url(#clip0_1319_94)">
    <mask id="mask0_1319_94" style="mask-type:luminance" maskUnits="userSpaceOnUse" x="0" y="0" width="49" height="48">
      <path d="M0.962891 0.46875H48.0222V47.5281H0.962891V0.46875Z" fill="white"/>
    </mask>
    <g mask="url(#mask0_1319_94)">
      <path d="M46.9026 0.468752H2.08055C1.78395 0.469271 1.49967 0.58746 1.29013 0.797373C1.08058 1.00729 0.962892 1.29177 0.962892 1.58837V46.4104C0.962634 46.5575 0.991418 46.7032 1.04759 46.8392C1.10377 46.9751 1.18623 47.0987 1.29025 47.2027C1.39426 47.3067 1.51779 47.3892 1.65375 47.4453C1.7897 47.5015 1.93541 47.5303 2.08251 47.53H46.9046C47.0516 47.53 47.1972 47.5011 47.333 47.4448C47.4689 47.3885 47.5923 47.3061 47.6963 47.2021C47.8002 47.0981 47.8827 46.9747 47.939 46.8389C47.9952 46.703 48.0242 46.5575 48.0242 46.4104V1.58641C48.0239 1.43938 47.9947 1.29384 47.9382 1.1581C47.8817 1.02236 47.799 0.899078 47.6949 0.795294C47.5907 0.69151 47.4672 0.609255 47.3312 0.553227C47.1953 0.497199 47.0496 0.468494 46.9026 0.468752ZM28.975 25.618H23.3729V43.0457H18.8905V25.618H13.2885V21.7572H28.975V25.618ZM30.2299 42.0496V37.3927C30.2299 37.3927 32.775 39.3103 35.828 39.3103C38.881 39.3103 38.7633 37.3142 38.7633 37.0397C38.7633 34.1436 30.1122 34.1436 30.1122 27.7239C30.1122 18.9944 42.7182 22.4396 42.7182 22.4396L42.5614 26.5886C42.5614 26.5886 40.4476 25.1788 38.0594 25.1788C35.6711 25.1788 34.8103 26.3161 34.8103 27.5279C34.8103 30.6593 43.5398 30.3475 43.5398 36.6495C43.5398 46.3555 30.2299 42.0516 30.2299 42.0516V42.0496Z" fill="#343434"/>
    </g>
  </g>
  <defs>
    <clipPath id="clip0_1319_94">
      <rect width="47.0593" height="47.0593" fill="white" transform="translate(0.964844 0.470703)"/>
    </clipPath>
  </defs>
</svg>